<svg width="19" height="18" viewBox="0 0 19 18" fill="none" xmlns="http://www.w3.org/2000/svg">
<path d="M15.0416 8.25C14.6044 8.25 14.2499 8.58579 14.2499 9C14.2499 9.41421 14.6044 9.75 15.0416 9.75C15.4788 9.75 15.8333 9.41421 15.8333 9C15.8333 8.58579 15.4788 8.25 15.0416 8.25Z" stroke="#007EFF" stroke-width="2" stroke-linecap="round" stroke-linejoin="round"/>
<path d="M9.50008 8.25C9.06286 8.25 8.70841 8.58579 8.70841 9C8.70841 9.41421 9.06286 9.75 9.50008 9.75C9.93731 9.75 10.2917 9.41421 10.2917 9C10.2917 8.58579 9.93731 8.25 9.50008 8.25Z" stroke="#007EFF" stroke-width="2" stroke-linecap="round" stroke-linejoin="round"/>
<path d="M3.95833 8.25C3.52111 8.25 3.16666 8.58579 3.16666 9C3.16666 9.41421 3.52111 9.75 3.95833 9.75C4.39556 9.75 4.75 9.41421 4.75 9C4.75 8.58579 4.39556 8.25 3.95833 8.25Z" stroke="#007EFF" stroke-width="2" stroke-linecap="round" stroke-linejoin="round"/>
</svg>
