<svg width="46" height="50" viewBox="0 0 46 50" fill="none" xmlns="http://www.w3.org/2000/svg">
<rect width="46" height="50" rx="6" fill="#007EFF"/>
<path d="M33 29C33 28.7348 32.8946 28.4804 32.7071 28.2929C32.5196 28.1054 32.2652 28 32 28C31.7348 28 31.4804 28.1054 31.2929 28.2929C31.1054 28.4804 31 28.7348 31 29V32C31 32.2652 30.8946 32.5196 30.7071 32.7071C30.5196 32.8946 30.2652 33 30 33H16C15.7348 33 15.4804 32.8946 15.2929 32.7071C15.1054 32.5196 15 32.2652 15 32V29C15 28.7348 14.8946 28.4804 14.7071 28.2929C14.5196 28.1054 14.2652 28 14 28C13.7348 28 13.4804 28.1054 13.2929 28.2929C13.1054 28.4804 13 28.7348 13 29V32C13 32.7956 13.3161 33.5587 13.8787 34.1213C14.4413 34.6839 15.2044 35 16 35H30C30.7956 35 31.5587 34.6839 32.1213 34.1213C32.6839 33.5587 33 32.7956 33 32V29Z" fill="white"/>
<path d="M22.0004 16V27.6L20.7114 26.3C20.5218 26.1316 20.2752 26.0415 20.0217 26.048C19.7681 26.0545 19.5265 26.1572 19.3458 26.3351C19.1651 26.513 19.0587 26.753 19.0482 27.0064C19.0377 27.2598 19.124 27.5078 19.2894 27.7L22.2894 30.73C22.3824 30.824 22.4931 30.8987 22.6152 30.9496C22.7372 31.0006 22.8682 31.0268 23.0004 31.0268C23.1327 31.0268 23.2636 31.0006 23.3856 30.9496C23.5077 30.8987 23.6184 30.824 23.7114 30.73L26.7114 27.7C26.8769 27.5078 26.9631 27.2598 26.9526 27.0064C26.9421 26.753 26.8358 26.513 26.655 26.3351C26.4743 26.1572 26.2327 26.0545 25.9791 26.048C25.7256 26.0415 25.479 26.1316 25.2894 26.3L24.0004 27.6V16C24.0004 15.7348 23.8951 15.4804 23.7075 15.2929C23.52 15.1054 23.2656 15 23.0004 15C22.7352 15 22.4808 15.1054 22.2933 15.2929C22.1058 15.4804 22.0004 15.7348 22.0004 16Z" fill="white"/>
</svg>
