<svg width="10" height="10" viewBox="0 0 10 10" fill="none" xmlns="http://www.w3.org/2000/svg">
<path d="M0.97561 10C0.707317 10 0.477561 9.90451 0.286341 9.71352C0.0954471 9.52286 0 9.29354 0 9.02558V2.20463C0 1.93666 0.0954471 1.70719 0.286341 1.5162C0.477561 1.32554 0.707317 1.23021 0.97561 1.23021H5.32927L4.35366 2.20463H0.97561V9.02558H7.80488V5.63946L8.78049 4.66504V9.02558C8.78049 9.29354 8.68504 9.52286 8.49415 9.71352C8.30293 9.90451 8.07317 10 7.80488 10H0.97561ZM6.42683 1.51035L7.12195 2.19245L3.90244 5.40804V6.10231H4.58537L7.81707 2.87454L8.5122 3.55664L5 7.07674H2.92683V5.00609L6.42683 1.51035ZM8.5122 3.55664L6.42683 1.51035L7.64634 0.292326C7.84146 0.0974422 8.07528 0 8.34781 0C8.62 0 8.84959 0.0974422 9.03659 0.292326L9.71951 0.986602C9.9065 1.17337 10 1.40073 10 1.6687C10 1.93666 9.9065 2.16403 9.71951 2.35079L8.5122 3.55664Z" fill="#1C1B1F"/>
</svg>
