<svg width="258" height="70" viewBox="0 0 258 70" fill="none" xmlns="http://www.w3.org/2000/svg">
<rect x="1" y="1" width="72" height="68" rx="30" fill="white"/>
<path d="M52.7545 19.5569L38.5771 30.0199L41.2136 23.8537L52.7545 19.5569Z" fill="#E17726"/>
<path d="M21.2788 19.5688L32.7889 23.8541L35.2922 30.1011L21.2788 19.5688Z" fill="#E27625"/>
<path d="M47.0489 41.8086L53.315 41.9275L51.1251 49.3478L43.479 47.248L47.0489 41.8086Z" fill="#E27625"/>
<path d="M26.9515 41.8086L30.5081 47.248L22.8749 49.3479L20.6982 41.9275L26.9515 41.8086Z" fill="#E27625"/>
<path d="M34.9524 28.5103L35.2086 36.7596L27.5459 36.4119L29.7255 33.1322L29.7531 33.1006L34.9524 28.5103Z" fill="#E27625"/>
<path d="M38.9692 28.4182L44.2479 33.1009L44.2752 33.1323L46.4548 36.412L38.7939 36.7596L38.9692 28.4182Z" fill="#E27625"/>
<path d="M30.7319 41.8325L34.916 45.0841L30.0557 47.4246L30.7319 41.8325Z" fill="#E27625"/>
<path d="M43.2689 41.8323L43.9311 47.4248L39.0845 45.0841L43.2689 41.8323Z" fill="#E27625"/>
<path d="M39.1914 44.7776L44.1096 47.1529L39.5347 49.3215L39.5822 47.8882L39.1914 44.7776Z" fill="#D5BFB2"/>
<path d="M34.8073 44.7791L34.4318 47.8651L34.4626 49.3203L29.877 47.1533L34.8073 44.7791Z" fill="#D5BFB2"/>
<path d="M33.3874 37.8364L34.6726 40.5305L30.2969 39.252L33.3874 37.8364Z" fill="#233447"/>
<path d="M40.613 37.8364L43.7181 39.2516L39.3281 40.5298L40.613 37.8364Z" fill="#233447"/>
<path d="M31.0667 41.8052L30.3593 47.6031L26.5684 41.9319L31.0667 41.8052Z" fill="#CC6228"/>
<path d="M42.9341 41.8052L47.4325 41.9319L43.6273 47.6033L42.9341 41.8052Z" fill="#CC6228"/>
<path d="M46.5656 36.0842L43.2918 39.412L40.7678 38.2615L39.5593 40.7954L38.7671 36.4381L46.5656 36.0842Z" fill="#CC6228"/>
<path d="M27.4336 36.0842L35.2335 36.4382L34.4413 40.7955L33.2325 38.2619L30.7218 39.4121L27.4336 36.0842Z" fill="#CC6228"/>
<path d="M27.2124 35.4014L30.9163 39.1501L31.0447 42.8509L27.2124 35.4014Z" fill="#E27525"/>
<path d="M46.7913 35.3945L42.9521 42.8574L43.0967 39.1499L46.7913 35.3945Z" fill="#E27525"/>
<path d="M35.0523 35.6294L35.2014 36.5653L35.5697 38.8966L35.3329 46.0572L34.2133 40.3051L34.2129 40.2456L35.0523 35.6294Z" fill="#E27525"/>
<path d="M38.9461 35.6165L39.7877 40.2455L39.7873 40.305L38.6649 46.0716L38.6204 44.6292L38.4453 38.8542L38.9461 35.6165Z" fill="#E27525"/>
<path d="M43.426 39.0007L43.3007 42.2161L39.3934 45.2525L38.6035 44.6958L39.4889 40.1471L43.426 39.0007Z" fill="#F5841F"/>
<path d="M30.5879 39.001L34.5114 40.1474L35.3968 44.696L34.6069 45.2527L30.6994 42.216L30.5879 39.001Z" fill="#F5841F"/>
<path d="M29.1299 46.4429L34.1288 48.8053L34.1076 47.7965L34.5259 47.4303H39.4734L39.9068 47.7953L39.8749 48.8034L44.8421 46.4488L42.4251 48.441L39.5023 50.4432H34.4858L31.565 48.4328L29.1299 46.4429Z" fill="#C0AC9D"/>
<path d="M38.8337 44.4634L39.5404 44.9613L39.9546 48.2574L39.3552 47.7526H34.6476L34.0596 48.2676L34.4602 44.9616L35.1672 44.4634H38.8337Z" fill="#161616"/>
<path d="M51.8182 19.8464L53.52 24.9386L52.4572 30.0873L53.214 30.6696L52.1899 31.4489L52.9595 32.0418L51.9404 32.9676L52.5661 33.4195L50.9056 35.3538L44.0949 33.3759L44.0359 33.3444L39.1279 29.2149L51.8182 19.8464Z" fill="#763E1A"/>
<path d="M22.1818 19.8464L34.8721 29.2149L29.9642 33.3444L29.9052 33.3759L23.0944 35.3538L21.4339 33.4195L22.0591 32.9679L21.0404 32.0418L21.8086 31.4496L20.7693 30.6681L21.5546 30.0854L20.48 24.9388L22.1818 19.8464Z" fill="#763E1A"/>
<path d="M43.7621 32.9436L50.9785 35.0392L53.323 42.2461L47.1378 42.2461L42.876 42.2997L45.9753 36.2742L43.7621 32.9436Z" fill="#F5841F"/>
<path d="M30.2383 32.9436L28.0247 36.2742L31.1244 42.2997L26.8647 42.2461H20.6904L23.0218 35.0392L30.2383 32.9436Z" fill="#F5841F"/>
<path d="M41.5673 23.8196L39.5488 29.2569L39.1205 36.6023L38.9566 38.9046L38.9436 44.7859H35.0573L35.0447 38.9156L34.8803 36.6003L34.4517 29.2569L32.4336 23.8196H41.5673Z" fill="#F5841F"/>
<rect x="1" y="1" width="72" height="68" rx="30" stroke="#91C7DF" stroke-width="2"/>
<rect x="95" y="1" width="72" height="68" rx="30" fill="white"/>
<path d="M125.626 18.4602C121.363 19.9204 117.727 23.1152 115.708 27.143C115.003 28.5346 114.493 30.0144 114.189 31.5432C113.415 35.3456 113.954 39.393 115.708 42.8622C116.845 45.126 118.482 47.135 120.461 48.703C122.333 50.1926 124.509 51.2902 126.821 51.9076C129.732 52.6916 132.839 52.672 135.779 52.0056C138.434 51.398 140.943 50.124 142.942 48.2816C145.059 46.3314 146.568 43.7736 147.372 41.0198C148.244 38.0112 148.362 34.8066 147.813 31.7294C142.325 31.7294 136.837 31.7294 131.339 31.7294C131.339 34.003 131.339 36.2864 131.339 38.56C134.514 38.56 137.699 38.56 140.875 38.56C140.502 40.7454 139.209 42.7348 137.366 43.9696C136.21 44.7438 134.887 45.2534 133.515 45.4886C132.133 45.7238 130.712 45.7532 129.34 45.4788C127.939 45.2044 126.606 44.6164 125.44 43.7932C123.578 42.4898 122.157 40.569 121.431 38.4228C120.687 36.2374 120.677 33.7972 121.431 31.6118C121.951 30.0732 122.823 28.6424 123.97 27.486C125.381 26.0356 127.213 25.0066 129.193 24.5852C130.888 24.2226 132.672 24.2912 134.328 24.791C135.739 25.2222 137.033 25.9866 138.101 27.0058C139.179 25.9376 140.247 24.8596 141.325 23.7914C141.884 23.2132 142.482 22.6644 143.031 22.0666C141.404 20.5574 139.483 19.3422 137.396 18.5778C133.652 17.1764 129.409 17.147 125.626 18.4602Z" fill="white"/>
<path d="M125.626 18.4601C129.408 17.1469 133.652 17.1763 137.415 18.5679C139.502 19.3323 141.413 20.5475 143.05 22.0567C142.501 22.6447 141.913 23.2033 141.345 23.7815C140.267 24.8497 139.199 25.9277 138.121 26.9959C137.052 25.9767 135.759 25.2025 134.348 24.7811C132.691 24.2813 130.908 24.2127 129.212 24.5753C127.233 24.9967 125.4 26.0355 123.989 27.4761C122.842 28.6325 121.97 30.0633 121.451 31.6019C119.54 30.1221 117.629 28.6325 115.718 27.1527C117.727 23.1151 121.363 19.9203 125.626 18.4601Z" fill="#E94435"/>
<path d="M114.189 31.543C114.493 30.0142 115.012 28.5344 115.708 27.1428C117.619 28.6226 119.53 30.1122 121.441 31.592C120.687 33.7774 120.696 36.2176 121.441 38.403C119.53 39.8828 117.619 41.3724 115.708 42.8522C113.954 39.4026 113.415 35.3454 114.189 31.543Z" fill="#F8BB15"/>
<path d="M131.349 31.7195C136.837 31.7195 142.325 31.7195 147.823 31.7195C148.371 34.7967 148.254 38.0013 147.382 41.0099C146.578 43.7637 145.069 46.3313 142.952 48.2717C141.1 46.8311 139.238 45.3905 137.395 43.9499C139.238 42.7249 140.531 40.7257 140.904 38.5403C137.729 38.5403 134.544 38.5403 131.368 38.5403C131.339 36.2765 131.349 34.0029 131.349 31.7195Z" fill="#547DBE"/>
<path d="M115.708 42.862C117.619 41.3822 119.53 39.8926 121.441 38.4128C122.166 40.5688 123.587 42.4798 125.449 43.7832C126.615 44.6064 127.948 45.1846 129.35 45.4688C130.722 45.7432 132.152 45.7138 133.524 45.4786C134.896 45.2434 136.219 44.7338 137.376 43.9596C139.228 45.4002 141.09 46.8408 142.932 48.2814C140.933 50.1336 138.424 51.3978 135.769 52.0054C132.838 52.6718 129.732 52.6914 126.811 51.9074C124.499 51.29 122.323 50.1924 120.451 48.7028C118.481 47.125 116.845 45.116 115.708 42.862Z" fill="#34A751"/>
<rect x="95" y="1" width="72" height="68" rx="30" stroke="#91C7DF" stroke-width="2"/>
<rect x="189" y="1" width="68" height="68" rx="30" fill="white"/>
<path d="M232.074 35.9387C232.06 33.2348 233.251 31.194 235.661 29.6911C234.312 27.7093 232.275 26.6189 229.585 26.4052C227.039 26.1989 224.255 27.9303 223.237 27.9303C222.161 27.9303 219.693 26.4789 217.756 26.4789C213.754 26.5452 209.5 29.7574 209.5 36.2923C209.5 38.2226 209.844 40.2191 210.533 42.2746C211.451 44.9785 214.765 51.6091 218.223 51.4986C220.03 51.4544 221.307 50.1799 223.66 50.1799C225.941 50.1799 227.125 51.4986 229.14 51.4986C232.626 51.4471 235.625 45.4205 236.5 42.7093C231.823 40.4475 232.074 36.0786 232.074 35.9387ZM228.014 23.8414C229.972 21.4543 229.793 19.2809 229.736 18.5C228.007 18.6031 226.006 19.7083 224.865 21.0712C223.61 22.53 222.871 24.335 223.029 26.3684C224.901 26.5157 226.608 25.5285 228.014 23.8414Z" fill="black"/>
<rect x="189" y="1" width="68" height="68" rx="30" stroke="#91C7DF" stroke-width="2"/>
</svg>
