<svg width="25" height="25" viewBox="0 0 25 25" fill="none" xmlns="http://www.w3.org/2000/svg">
<g clip-path="url(#clip0_140_1086)">
<path opacity="0.1" d="M21.8085 0H3.19149C1.42888 0 0 1.42888 0 3.19149V21.8085C0 23.5711 1.42888 25 3.19149 25H21.8085C23.5711 25 25 23.5711 25 21.8085V3.19149C25 1.42888 23.5711 0 21.8085 0Z" fill="#060B27"/>
<mask id="mask0_140_1086" style="mask-type:luminance" maskUnits="userSpaceOnUse" x="5" y="5" width="15" height="15">
<path d="M19.6429 5.35718H5.35718V19.6429H19.6429V5.35718Z" fill="white"/>
</mask>
<g mask="url(#mask0_140_1086)">
<path d="M17.8123 8.08059V12.5544C17.8123 12.801 17.7124 13.0242 17.5508 13.1858C17.3892 13.3473 17.166 13.4473 16.9194 13.4473C16.4263 13.4472 16.0266 13.0475 16.0266 12.5544L16.0266 10.2361L8.71195 17.5508C8.36328 17.8995 7.79794 17.8995 7.44927 17.5508C7.10057 17.2021 7.10057 16.6368 7.44927 16.2881L14.7639 8.97346L12.4457 8.97349C11.9525 8.97346 11.5528 8.57373 11.5528 8.08062C11.5528 7.58748 11.9525 7.18777 12.4457 7.18774H16.9195C17.4125 7.18774 17.8123 7.5875 17.8123 8.08059Z" fill="#060B27"/>
</g>
</g>
<defs>
<clipPath id="clip0_140_1086">
<rect width="25" height="25" fill="white"/>
</clipPath>
</defs>
</svg>
