<svg width="22" height="18" viewBox="0 0 22 18" fill="none" xmlns="http://www.w3.org/2000/svg">
<path fill-rule="evenodd" clip-rule="evenodd" d="M11.3954 8.79209C11.0225 9.05463 10.5041 9.05059 10.1312 8.79209L1.15108 2.10751C0.673127 1.77092 0.931624 0.924072 1.53344 0.924072H20.012C20.6151 0.924072 20.8736 1.77092 20.3957 2.10751L11.3954 8.79209ZM21.5495 13.9324V15.1697C21.5495 16.2212 20.6987 17.0761 19.6485 17.0761H1.90911C0.858966 17.0761 0.00807805 16.2212 0.00807805 15.1697V13.9378C0.00673171 13.9095 0 13.8839 0 13.8584V5.3239C0 4.78941 0.601815 4.49052 1.00976 4.82306L9.86061 11.3851C10.4045 11.816 11.1733 11.816 11.7186 11.3851L20.5479 4.82306C20.9558 4.49052 21.5576 4.78941 21.5576 5.3239V13.8584C21.5576 13.8839 21.5509 13.9095 21.5495 13.9324Z" fill="#060B27"/>
</svg>
