<svg width="25" height="24" viewBox="0 0 25 24" fill="none" xmlns="http://www.w3.org/2000/svg">
<g clip-path="url(#clip0_152_834)">
<path d="M12.5 24C19.1274 24 24.5 18.6274 24.5 12C24.5 5.37258 19.1274 0 12.5 0C5.87258 0 0.5 5.37258 0.5 12C0.5 18.6274 5.87258 24 12.5 24Z" fill="#2775CA"/>
<path d="M10.2485 20.3443C10.2485 20.6286 10.028 20.7911 9.75532 20.7041C6.12863 19.5435 3.5 16.1431 3.5 12.1277C3.5 8.1122 6.12863 4.71181 9.76112 3.55127C10.0338 3.46423 10.2544 3.62671 10.2544 3.91104V4.60736C10.2544 4.79885 10.1093 5.01355 9.9294 5.07738C7.05706 6.13348 4.9971 8.89556 4.9971 12.1277C4.9971 15.3598 7.05126 18.1219 9.9236 19.1722C10.1035 19.236 10.2485 19.4565 10.2485 19.648V20.3443Z" fill="white"/>
<path d="M13.2542 17.7505C13.2542 17.9594 13.086 18.1277 12.8771 18.1277H12.1285C11.9196 18.1277 11.7513 17.9594 11.7513 17.7505V16.5668C10.115 16.3463 9.31419 15.4294 9.09369 14.1818C9.05888 13.9671 9.22715 13.7757 9.44185 13.7757H10.2949C10.4747 13.7757 10.6256 13.9033 10.6604 14.0774C10.8171 14.8201 11.2523 15.3946 12.5579 15.3946C13.527 15.3946 14.2117 14.855 14.2117 14.0484C14.2117 13.236 13.8055 12.9343 12.3838 12.7022C10.289 12.4178 9.29679 11.7795 9.29679 10.1374C9.29679 8.86656 10.26 7.8801 11.7455 7.6654V6.50486C11.7455 6.29596 11.9138 6.12769 12.1227 6.12769H12.8713C13.0802 6.12769 13.2484 6.29596 13.2484 6.50486V7.70022C14.4554 7.91492 15.2272 8.59964 15.4767 9.74277C15.5231 9.95747 15.3548 10.1606 15.1343 10.1606H14.3451C14.1769 10.1606 14.0318 10.0445 13.9854 9.88204C13.7707 9.1567 13.2542 8.84335 12.3548 8.84335C11.3626 8.84335 10.8461 9.31918 10.8461 9.99809C10.8461 10.7118 11.142 11.0658 12.6624 11.2863C14.7223 11.5706 15.79 12.1567 15.79 13.9091C15.79 15.2437 14.8036 16.323 13.2484 16.5668L13.2542 17.7505Z" fill="white"/>
<path d="M15.2447 20.7041C14.972 20.7911 14.7515 20.6286 14.7515 20.3443V19.6422C14.7515 19.4333 14.8791 19.2418 15.0764 19.1664C17.9488 18.1161 20.0029 15.354 20.0029 12.1219C20.0029 8.88976 17.9488 6.12767 15.0764 5.07738C14.8965 5.01355 14.7515 4.79305 14.7515 4.60736V3.91104C14.7515 3.62671 14.972 3.46423 15.2447 3.55127C18.8772 4.71181 21.5058 8.1122 21.5058 12.1277C21.5 16.1431 18.8714 19.5435 15.2447 20.7041Z" fill="white"/>
</g>
<defs>
<clipPath id="clip0_152_834">
<rect width="24" height="24" fill="white" transform="translate(0.5)"/>
</clipPath>
</defs>
</svg>
