<svg width="38" height="13" viewBox="0 0 38 13" fill="none" xmlns="http://www.w3.org/2000/svg">
<path d="M3.14418 10.3381V2.79545H5.05114V10.3381H3.14418ZM0.326349 7.52024V5.61328H7.86896V7.52024H0.326349ZM14.8256 1.09091V12H12.5192V3.28018H12.4553L9.95703 4.84624V2.80078L12.6577 1.09091H14.8256ZM17.4184 12V10.3381L21.3016 6.74254C21.6318 6.42294 21.9088 6.1353 22.1325 5.87962C22.3598 5.62393 22.532 5.37358 22.6492 5.12855C22.7664 4.87997 22.825 4.61186 22.825 4.32422C22.825 4.00462 22.7522 3.7294 22.6066 3.49858C22.461 3.2642 22.2622 3.08487 22.01 2.96058C21.7579 2.83274 21.472 2.76882 21.1524 2.76882C20.8186 2.76882 20.5274 2.83629 20.2789 2.97124C20.0303 3.10618 19.8385 3.29972 19.7036 3.55185C19.5686 3.80398 19.5012 4.10405 19.5012 4.45206H17.3119C17.3119 3.73828 17.4735 3.11861 17.7966 2.59304C18.1198 2.06747 18.5725 1.66087 19.1549 1.37322C19.7373 1.08558 20.4085 0.941761 21.1684 0.941761C21.9497 0.941761 22.6297 1.08026 23.2085 1.35724C23.7909 1.63068 24.2437 2.01065 24.5669 2.49716C24.89 2.98366 25.0516 3.54119 25.0516 4.16974C25.0516 4.58168 24.9699 4.98828 24.8066 5.38956C24.6468 5.79084 24.3609 6.23651 23.949 6.72656C23.537 7.21307 22.9564 7.79723 22.2071 8.47905L20.6144 10.0398V10.1143H25.1954V12H17.4184ZM32.8379 9.95455V9.37926C32.8379 8.94247 32.9302 8.54119 33.1149 8.17543C33.3031 7.80611 33.5748 7.51136 33.9299 7.29119C34.2885 7.06747 34.7253 6.95561 35.2402 6.95561C35.7623 6.95561 36.2008 7.0657 36.5559 7.28587C36.9146 7.50604 37.1845 7.80078 37.3656 8.1701C37.5502 8.53587 37.6426 8.93892 37.6426 9.37926V9.95455C37.6426 10.3913 37.5502 10.7944 37.3656 11.1637C37.1809 11.5295 36.9093 11.8224 36.5506 12.0426C36.1919 12.2663 35.7551 12.3782 35.2402 12.3782C34.7182 12.3782 34.2797 12.2663 33.9245 12.0426C33.5694 11.8224 33.2995 11.5295 33.1149 11.1637C32.9302 10.7944 32.8379 10.3913 32.8379 9.95455ZM34.388 9.37926V9.95455C34.388 10.2067 34.4483 10.4446 34.5691 10.6683C34.6934 10.892 34.9171 11.0039 35.2402 11.0039C35.5634 11.0039 35.7836 10.8938 35.9007 10.6737C36.0215 10.4535 36.0819 10.2138 36.0819 9.95455V9.37926C36.0819 9.12003 36.025 8.87855 35.9114 8.65483C35.7978 8.43111 35.574 8.31925 35.2402 8.31925C34.9206 8.31925 34.6987 8.43111 34.5744 8.65483C34.4501 8.87855 34.388 9.12003 34.388 9.37926ZM27.2395 3.71165V3.13636C27.2395 2.69602 27.3336 2.29297 27.5218 1.9272C27.71 1.55788 27.9817 1.26314 28.3368 1.04297C28.6955 0.822798 29.1287 0.712713 29.6365 0.712713C30.1621 0.712713 30.6025 0.822798 30.9576 1.04297C31.3127 1.26314 31.5826 1.55788 31.7672 1.9272C31.9519 2.29297 32.0442 2.69602 32.0442 3.13636V3.71165C32.0442 4.15199 31.9501 4.55504 31.7619 4.92081C31.5772 5.28658 31.3056 5.57955 30.9469 5.79972C30.5918 6.01634 30.155 6.12464 29.6365 6.12464C29.1181 6.12464 28.6795 6.01456 28.3208 5.79439C27.9657 5.57067 27.6958 5.2777 27.5112 4.91548C27.3301 4.54972 27.2395 4.14844 27.2395 3.71165ZM28.8002 3.13636V3.71165C28.8002 3.97088 28.8606 4.21058 28.9814 4.43075C29.1056 4.65092 29.324 4.76101 29.6365 4.76101C29.9632 4.76101 30.1852 4.65092 30.3024 4.43075C30.4231 4.21058 30.4835 3.97088 30.4835 3.71165V3.13636C30.4835 2.87713 30.4267 2.63565 30.313 2.41193C30.1994 2.18821 29.9739 2.07635 29.6365 2.07635C29.3205 2.07635 29.1021 2.18999 28.9814 2.41726C28.8606 2.64453 28.8002 2.88423 28.8002 3.13636ZM27.9426 12L35.4426 1.09091H36.8382L29.3382 12H27.9426Z" fill="#73DC8A"/>
</svg>
