<svg width="95" height="95" viewBox="0 0 95 95" fill="none" xmlns="http://www.w3.org/2000/svg">
<path d="M47.1851 75.2365C37.3934 75.2365 28.7376 70.2232 23.6851 62.7032C23.8026 54.8699 39.3518 50.5615 47.1851 50.5615C55.0184 50.5615 70.5676 54.8699 70.6851 62.7032C65.6326 70.2232 56.9768 75.2365 47.1851 75.2365ZM47.1851 19.6199C50.3014 19.6199 53.2901 20.8578 55.4936 23.0614C57.6972 25.2649 58.9351 28.2536 58.9351 31.3699C58.9351 34.4862 57.6972 37.4748 55.4936 39.6784C53.2901 41.8819 50.3014 43.1199 47.1851 43.1199C44.0688 43.1199 41.0801 41.8819 38.8766 39.6784C36.673 37.4748 35.4351 34.4862 35.4351 31.3699C35.4351 28.2536 36.673 25.2649 38.8766 23.0614C41.0801 20.8578 44.0688 19.6199 47.1851 19.6199ZM47.1851 7.86987C42.0417 7.86987 36.9486 8.88295 32.1967 10.8513C27.4447 12.8196 23.127 15.7046 19.4901 19.3415C12.1449 26.6867 8.01843 36.6489 8.01843 47.0365C8.01843 57.4242 12.1449 67.3864 19.4901 74.7316C23.127 78.3685 27.4447 81.2535 32.1967 83.2218C36.9486 85.1901 42.0417 86.2032 47.1851 86.2032C57.5727 86.2032 67.5349 82.0767 74.8801 74.7316C82.2253 67.3864 86.3518 57.4242 86.3518 47.0365C86.3518 25.3774 68.7268 7.86987 47.1851 7.86987Z" fill="black"/>
</svg>
