<svg width="24" height="24" viewBox="0 0 24 24" fill="none" xmlns="http://www.w3.org/2000/svg">
<path d="M9.65094 18C11.364 17.9996 13.0276 17.4054 14.377 16.312L18.6196 20.708L19.9842 19.294L15.7417 14.898C16.7975 13.4997 17.3713 11.7754 17.3717 10C17.3717 5.589 13.908 2 9.65094 2C5.3939 2 1.93018 5.589 1.93018 10C1.93018 14.411 5.3939 18 9.65094 18ZM9.65094 4C12.8444 4 15.4415 6.691 15.4415 10C15.4415 13.309 12.8444 16 9.65094 16C6.45744 16 3.86037 13.309 3.86037 10C3.86037 6.691 6.45744 4 9.65094 4Z" fill="#999999"/>
</svg>
