<svg width="132" height="149" viewBox="0 0 132 149" fill="none" xmlns="http://www.w3.org/2000/svg">
<g clip-path="url(#clip0_84_520)">
<path d="M0 22.9192L216.245 2.13528C228.514 0.955994 239.417 9.94664 240.596 22.2165L265.793 284.371C266.972 296.641 257.981 307.543 245.712 308.722L29.467 329.506L0 22.9192Z" fill="url(#paint0_linear_84_520)"/>
<g style="mix-blend-mode:hard-light" clip-path="url(#clip1_84_520)">
<mask id="mask0_84_520" style="mask-type:luminance" maskUnits="userSpaceOnUse" x="-53" y="31" width="245" height="201">
<path d="M174.212 30.9999L-53 52.8379L-35.8511 231.262L191.361 209.424L174.212 30.9999Z" fill="white"/>
</mask>
<g mask="url(#mask0_84_520)">
<path d="M28.207 220.08C26.5948 220.235 25.0239 220.058 23.8113 219.505L-35.6028 192.402C-36.7937 191.859 -37.5035 191.012 -37.5992 190.016C-37.7141 188.821 -36.9354 187.534 -35.464 186.485L65.9308 114.159C68.6879 112.193 73.1049 111.584 75.7784 112.803L135.192 139.906C136.383 140.449 137.093 141.296 137.189 142.292C137.304 143.487 136.525 144.774 135.054 145.823L33.6588 218.149C32.1521 219.223 30.1498 219.893 28.207 220.08ZM23.9117 219.283C26.5152 220.471 30.8238 219.874 33.5168 217.951L134.913 145.625C136.311 144.628 137.053 143.421 136.946 142.315C136.859 141.41 136.201 140.634 135.092 140.128L75.678 113.026C73.0759 111.84 68.766 112.436 66.0717 114.358L-35.3231 186.683C-36.7215 187.681 -37.463 188.887 -37.3567 189.993C-37.2697 190.898 -36.6117 191.674 -35.5023 192.181L23.9117 219.283Z" fill="#42E8E0"/>
<mask id="mask1_84_520" style="mask-type:luminance" maskUnits="userSpaceOnUse" x="-68" y="-3" width="269" height="269">
<path d="M-67.6541 20.9453L176.66 -2.5364L200.151 241.88L-44.1625 265.362L-67.6541 20.9453Z" fill="white"/>
</mask>
<g mask="url(#mask1_84_520)">
<path d="M135.624 127.288L127.673 129.457L75.0093 105.435C72.3675 104.229 68.0119 104.831 65.2823 106.778L-24.8692 171.084L-38.926 174.919L-38.4399 179.99L-38.434 179.988C-38.3524 180.913 -37.7172 181.744 -36.5135 182.294L22.9005 209.395C25.5422 210.601 29.8979 209.999 32.6274 208.052L134.022 135.727C135.491 134.679 136.182 133.454 136.103 132.359L136.111 132.357L135.624 127.288Z" fill="url(#paint1_linear_84_520)"/>
<path d="M22.4098 204.291L-37.0041 177.19C-39.6458 175.984 -39.5748 173.428 -36.8452 171.481L64.5496 99.1555C67.2792 97.2082 71.6349 96.6068 74.2766 97.8125L133.691 124.915C136.332 126.121 136.261 128.675 133.532 130.622L32.1368 202.948C29.4072 204.895 25.0515 205.497 22.4098 204.291Z" fill="#24126A"/>
<path d="M133.532 130.623L32.1368 202.948C29.4072 204.895 25.0515 205.497 22.4098 204.291L-37.0041 177.19C-38.0638 176.707 -38.6794 176.003 -38.8699 175.213C-38.9243 176.268 -38.2871 177.234 -36.9409 177.848L22.4731 204.949C25.1148 206.155 29.4705 205.553 32.2001 203.606L133.595 131.281C135.23 130.115 135.904 128.73 135.62 127.549C135.566 128.565 134.871 129.668 133.532 130.623Z" fill="white"/>
<g opacity="0.51">
<path d="M22.316 201.616L-34.9807 175.471C-37.5371 174.305 -37.469 171.832 -34.8271 169.948L64.6887 98.9801C67.3306 97.0961 71.5444 96.5132 74.1007 97.6796L131.398 123.826C133.954 124.992 133.886 127.465 131.244 129.349L31.728 200.315C29.0861 202.199 24.8723 202.782 22.316 201.616Z" fill="#453C9E"/>
</g>
<g style="mix-blend-mode:lighten">
<path d="M26.4747 202.34C24.9035 202.491 23.3744 202.319 22.1925 201.78L-35.1054 175.636C-36.2784 175.101 -36.9753 174.262 -37.0699 173.278C-37.183 172.101 -36.4216 170.836 -34.9811 169.808L64.5348 98.8406C67.2177 96.927 71.5172 96.337 74.1219 97.5244L131.42 123.669C132.592 124.204 133.29 125.042 133.384 126.026C133.497 127.203 132.735 128.467 131.294 129.495L31.7783 200.463C30.3125 201.508 28.3656 202.158 26.4747 202.34ZM22.3382 201.459C24.8399 202.602 28.9825 202.026 31.5742 200.177L131.09 129.209C132.426 128.256 133.135 127.107 133.034 126.059C132.952 125.204 132.327 124.47 131.274 123.989L73.976 97.8442C71.4743 96.7018 67.3307 97.2792 64.739 99.128L-34.777 170.095C-36.1127 171.048 -36.8208 172.195 -36.7199 173.244C-36.6378 174.099 -36.0131 174.833 -34.9597 175.315L22.3382 201.459Z" fill="url(#paint2_linear_84_520)"/>
</g>
<g opacity="0.4">
<path d="M120.253 130.15C119.47 130.707 118.128 130.836 117.253 130.438C116.378 130.039 116.304 129.262 117.087 128.704C117.87 128.147 119.212 128.018 120.087 128.416C120.962 128.814 121.036 129.592 120.253 130.15Z" fill="#24126A"/>
</g>
<g opacity="0.4">
<path d="M107.997 122.902L114.198 125.73C114.956 126.075 114.935 126.809 114.152 127.367C113.369 127.924 112.121 128.097 111.363 127.752L105.164 124.924C104.406 124.579 104.426 123.845 105.209 123.287C105.992 122.729 107.24 122.557 107.997 122.902Z" fill="#24126A"/>
</g>
<g opacity="0.4">
<path d="M72.5367 105.773L78.7359 108.602C79.4937 108.947 79.474 109.68 78.6909 110.238C77.9079 110.796 76.6603 110.968 75.9025 110.623L69.7023 107.795C68.9445 107.45 68.9653 106.717 69.7484 106.16C70.5315 105.602 71.7789 105.428 72.5367 105.773Z" fill="#24126A"/>
</g>
<path d="M120.051 128.043C119.268 128.601 117.926 128.73 117.051 128.331C116.176 127.933 116.101 127.155 116.884 126.598C117.667 126.04 119.009 125.911 119.884 126.309C120.759 126.708 120.834 127.485 120.051 128.043Z" fill="#42E8E0"/>
<path d="M107.795 120.795L113.995 123.624C114.753 123.969 114.732 124.702 113.949 125.26C113.166 125.818 111.919 125.99 111.161 125.645L104.962 122.817C104.204 122.472 104.223 121.738 105.007 121.18C105.79 120.622 107.037 120.45 107.795 120.795Z" fill="#42E8E0"/>
<path d="M72.3343 103.667L78.5335 106.496C79.2913 106.841 79.2716 107.574 78.4885 108.132C77.7055 108.69 76.4579 108.862 75.7001 108.517L69.4999 105.689C68.7421 105.344 68.763 104.611 69.546 104.053C70.3291 103.496 71.5765 103.322 72.3343 103.667Z" fill="#42E8E0"/>
<path d="M45.6739 166.589C39.3037 167.201 32.7989 166.412 27.6804 164.078C22.6972 161.805 19.7495 158.421 19.3777 154.553C19.0059 150.685 21.2567 146.803 25.7144 143.623C34.8747 137.089 50.6566 135.572 60.8937 140.242C65.8769 142.515 68.8246 145.898 69.1964 149.766C69.5682 153.635 67.3187 157.516 62.8597 160.696C58.2795 163.963 52.044 165.977 45.6739 166.589ZM42.9223 137.961C36.5945 138.569 30.3991 140.569 25.8489 143.814C21.4624 146.944 19.2469 150.748 19.6104 154.531C19.974 158.313 22.8737 161.627 27.7773 163.864C37.9475 168.504 53.6234 166.996 62.7238 160.505C67.1117 157.376 69.3285 153.571 68.965 149.788C68.6014 146.006 65.7004 142.692 60.7968 140.455C55.7118 138.136 49.2502 137.352 42.9223 137.961Z" fill="#42E8E0"/>
<g opacity="0.666533">
<path d="M45.4444 164.2C40.1287 164.711 34.7006 164.053 30.4294 162.105C26.2711 160.208 23.8113 157.385 23.501 154.157C23.1908 150.929 25.069 147.69 28.7888 145.036C36.4328 139.584 49.6023 138.318 58.1448 142.215C62.3031 144.111 64.7629 146.934 65.0732 150.162C65.3834 153.391 63.5063 156.629 59.7854 159.283C55.9634 162.009 50.76 163.689 45.4444 164.2ZM43.1483 140.311C37.8679 140.819 32.6981 142.488 28.9011 145.196C25.2407 147.807 23.3919 150.982 23.6953 154.138C23.9986 157.295 26.4184 160.06 30.5102 161.927C38.9969 165.798 52.078 164.54 59.672 159.124C63.3335 156.512 65.1834 153.337 64.88 150.181C64.5767 147.025 62.1558 144.259 58.0639 142.393C53.8207 140.458 48.4287 139.804 43.1483 140.311Z" fill="#42E8E0"/>
</g>
</g>
<mask id="mask2_84_520" style="mask-type:luminance" maskUnits="userSpaceOnUse" x="-25" y="18" width="269" height="268">
<path d="M-24.7488 41.4888L219.565 18.0071L243.057 262.424L-1.2572 285.905L-24.7488 41.4888Z" fill="white"/>
</mask>
<g mask="url(#mask2_84_520)">
<mask id="mask3_84_520" style="mask-type:luminance" maskUnits="userSpaceOnUse" x="-90" y="30" width="282" height="239">
<path d="M174.212 30.9997L-52.9999 52.8376L-35.851 231.262L191.361 209.424L174.212 30.9997Z" fill="white"/>
<path d="M-4.68689 121.95L-89.398 189.787L74.029 268.802L141.338 204.611L-4.68689 121.95Z" fill="black"/>
</mask>
<g mask="url(#mask3_84_520)">
<path d="M95.5451 69.0224C95.6079 62.1709 90.875 53.7938 84.9744 50.3124C82.0187 48.5687 79.33 48.3846 77.3751 49.4953L75.3335 50.6647L75.9222 50.726C74.8397 52.0268 74.1988 53.9539 74.1763 56.4156C74.1135 63.267 78.8464 71.643 84.747 75.1243C86.7741 76.3209 88.6758 76.7838 90.301 76.5978L90.2511 77.1418L92.3232 75.9546C92.3317 75.9498 92.3402 75.945 92.3488 75.9403L92.4329 75.8913L92.428 75.8901C94.3261 74.7618 95.5142 72.3923 95.5451 69.0224Z" fill="#D19D2A"/>
<path d="M93.4805 70.205C93.4177 77.0565 88.5829 79.7883 82.6824 76.307C76.7818 72.8256 72.0489 64.4485 72.1117 57.597C72.1745 50.7456 77.0093 48.0137 82.9098 51.4951C88.8104 54.9764 93.5433 63.3536 93.4805 70.205Z" fill="#F2BC36"/>
<path d="M87.6445 66.9028C88.036 67.5881 88.2726 68.3652 88.3484 69.2342C88.456 70.4649 88.1276 71.238 87.3754 71.5474C86.9239 71.7311 86.3611 71.7513 85.6847 71.5945L85.8527 73.511L84.0669 72.6829L83.9143 70.9363L82.8686 70.4523L83.0212 72.1988L81.2378 71.3719L81.0852 69.6254L77.6777 68.0459L77.4736 65.7022L79.3198 66.5576L78.5501 57.7448L76.7039 56.8895L76.4998 54.5409L79.9073 56.1205L79.7546 54.3776L81.538 55.2033L81.6895 56.9474L82.1906 57.1789C82.3777 57.2655 82.56 57.3533 82.7362 57.4447L82.5837 55.6885L84.3695 56.5154L84.5408 58.4792C85.1603 58.8925 85.6741 59.3279 86.0823 59.7683C86.9192 60.6821 87.391 61.7307 87.4953 62.9201C87.5656 63.7224 87.4511 64.3107 87.1472 64.6619C86.8469 65.0181 86.4131 65.1158 85.8459 64.9528L85.8547 65.0475C86.6548 65.5996 87.253 66.22 87.6445 66.9028ZM85.4278 68.6489C85.5788 68.4502 85.6363 68.1294 85.5979 67.6852C85.5638 67.298 85.4495 66.9404 85.2488 66.6026C84.8978 66.0026 84.2841 65.485 83.4004 65.0547C83.351 65.0288 83.3051 65.0065 83.2532 64.983L81.6315 64.2316L81.9389 67.7537L83.7079 68.5732C84.3986 68.8841 84.895 68.9689 85.203 68.8311C85.2932 68.7883 85.3713 68.732 85.4278 68.6489ZM81.1715 58.9592L81.434 61.9619L82.9541 62.6675C83.0411 62.7071 83.1208 62.7406 83.2017 62.7753C83.7815 63.0197 84.2028 63.1001 84.4666 63.0238C84.7621 62.9283 84.89 62.6033 84.8417 62.0523C84.7967 61.5328 84.591 61.0846 84.2199 60.6954C83.9244 60.3834 83.4979 60.0799 82.9416 59.7921C82.8197 59.7266 82.6869 59.6623 82.548 59.598L81.1715 58.9592Z" fill="#FCCB5E"/>
</g>
</g>
<mask id="mask4_84_520" style="mask-type:luminance" maskUnits="userSpaceOnUse" x="-69" y="-15" width="268" height="269">
<path d="M-68.8328 8.68115L175.481 -14.8006L198.973 229.616L-45.3412 253.098L-68.8328 8.68115Z" fill="white"/>
</mask>
<g mask="url(#mask4_84_520)">
<path d="M173.594 156.461L134.665 138.702C133.15 138.012 131.775 135.901 131.591 133.988L123.104 45.6911C122.921 43.7777 123.998 42.7871 125.513 43.4774L164.442 61.2362C165.956 61.9265 167.332 64.0373 167.516 65.9507L176.002 154.247C176.186 156.161 175.109 157.151 173.594 156.461Z" fill="url(#paint3_linear_84_520)"/>
<path d="M164.442 61.2364L125.513 43.4775C124.836 43.1685 124.247 43.1983 123.819 43.4941L84.0479 71.8435L86.7376 78.9975L135.644 184.698L175.257 156.468C175.264 156.464 175.27 156.459 175.277 156.454L175.347 156.404L175.346 156.4C175.839 156.019 176.1 155.266 176.002 154.248L167.516 65.9508C167.332 64.0374 165.956 61.9266 164.442 61.2364Z" fill="#B95CE0"/>
<path d="M164.442 61.2364L125.513 43.4775C124.836 43.1685 124.247 43.1983 123.819 43.4941L84.0479 71.8435L86.7376 78.9975L100.186 108.063L102.284 109.02L166.518 63.2018C165.956 62.3189 165.218 61.5907 164.442 61.2364Z" fill="#8144D8"/>
<path d="M133.852 184.787L94.9221 167.029C93.4077 166.339 92.0319 164.227 91.848 162.314L83.3617 74.0183C83.1778 72.1048 84.2554 71.1143 85.7697 71.8045L124.7 89.5621C126.214 90.2523 127.59 92.3631 127.774 94.2765L136.261 182.573C136.444 184.487 135.367 185.477 133.852 184.787Z" fill="#7C2CAF"/>
<path d="M131.021 179.695L96.9893 164.171C95.6659 163.567 94.4631 161.721 94.3024 160.049L86.4209 78.0471C86.2602 76.3752 87.2022 75.5073 88.5256 76.1111L122.558 91.6359C123.881 92.2397 125.084 94.0845 125.244 95.7565L133.126 177.759C133.287 179.431 132.345 180.299 131.021 179.695Z" fill="url(#paint4_linear_84_520)"/>
<path d="M131.021 179.695L96.9893 164.171C95.6659 163.567 94.4631 161.721 94.3024 160.049L86.4209 78.0471C86.2602 76.3752 87.2022 75.5073 88.5256 76.1111L122.558 91.6359C123.881 92.2397 125.084 94.0845 125.244 95.7565L133.126 177.759C133.287 179.431 132.345 180.299 131.021 179.695Z" fill="url(#paint5_linear_84_520)"/>
<g opacity="0.51">
<path d="M131.021 179.695L96.9893 164.171C95.6659 163.567 94.4631 161.721 94.3024 160.049L86.4209 78.0471C86.2602 76.3752 87.2022 75.5073 88.5256 76.1111L122.558 91.6359C123.881 92.2397 125.084 94.0845 125.244 95.7565L133.126 177.759C133.287 179.431 132.345 180.299 131.021 179.695Z" fill="#453C9E"/>
</g>
<path d="M132.015 178.973L97.9832 163.449C96.6598 162.846 95.4569 161 95.2962 159.328L87.4148 77.3254C87.36 76.7556 87.4362 76.2816 87.609 75.9251C86.7975 75.997 86.3007 76.7965 86.421 78.0471L94.3024 160.049C94.4631 161.721 95.666 163.567 96.9894 164.171L131.021 179.695C131.894 180.092 132.597 179.848 132.932 179.159C132.658 179.183 132.349 179.125 132.015 178.973Z" fill="#396CAA"/>
<path d="M127.403 142.045L114.754 136.276L96.7016 149.152L131.921 165.218L130.09 146.167C129.929 144.495 128.726 142.649 127.403 142.045Z" fill="#470191"/>
<path d="M125.788 125.242L113.139 119.472L95.0866 132.349L130.306 148.415L128.475 129.364C128.314 127.692 127.111 125.846 125.788 125.242Z" fill="#470191"/>
<path d="M124.173 108.439L111.524 102.669L93.4716 115.546L128.69 131.611L126.86 112.561C126.699 110.889 125.496 109.043 124.173 108.439Z" fill="#470191"/>
<path d="M122.558 91.6345L109.909 85.8654L91.8566 98.7423L127.075 114.807L125.244 95.7563C125.084 94.0843 123.881 92.2384 122.558 91.6345Z" fill="#470191"/>
<path d="M122.557 91.6346L94.5541 78.8614L90.2414 81.9381L125.46 98.0042L125.244 95.7564C125.084 94.0844 123.881 92.2385 122.557 91.6346Z" fill="#470191"/>
<path d="M125.46 98.0042L90.2415 81.938L91.2623 92.559L126.481 108.624L125.46 98.0042Z" fill="#5793CE"/>
<path d="M127.075 114.807L91.8564 98.7412L92.8773 109.362L128.096 125.428L127.075 114.807Z" fill="#5793CE"/>
<path d="M128.69 131.611L93.4716 115.546L94.4923 126.166L129.711 142.232L128.69 131.611Z" fill="#5793CE"/>
<path d="M130.306 148.415L95.0865 132.349L96.1074 142.97L131.326 159.035L130.306 148.415Z" fill="#5793CE"/>
<path d="M131.921 165.218L96.7015 149.152L97.7224 159.773L132.941 175.838L131.921 165.218Z" fill="#5793CE"/>
<path d="M123.175 105.122L96.6469 93.021C95.898 92.68 95.2179 91.6354 95.127 90.689L94.8536 87.8448C94.7626 86.8983 95.2951 86.4073 96.0441 86.7496L122.573 98.8507C123.322 99.1917 124.002 100.236 124.093 101.183L124.366 104.027C124.457 104.973 123.924 105.464 123.175 105.122Z" fill="#173D7A"/>
<g opacity="0.3">
<path d="M97.8652 92.3545C97.1163 92.0122 96.4351 90.969 96.3441 90.0225L96.0707 87.1783C96.0562 87.0274 96.0628 86.8928 96.0786 86.7658L96.0441 86.7496C95.2951 86.4073 94.7626 86.8983 94.8536 87.8448L95.127 90.689C95.2179 91.6354 95.898 92.68 96.647 93.0223L123.175 105.122C123.805 105.409 124.276 105.104 124.358 104.439L97.8652 92.3545Z" fill="#06033E"/>
</g>
<path d="M114.539 98.0853L98.5759 90.8035C98.3124 90.6839 98.0724 90.3159 98.0404 89.9827C98.0083 89.6495 98.1964 89.4779 98.46 89.5975L114.423 96.8793C114.687 96.999 114.927 97.3658 114.959 97.699C114.991 98.0322 114.803 98.205 114.539 98.0853Z" fill="#FCCC6B"/>
<path d="M124.78 121.822L98.2521 109.722C97.5032 109.381 96.823 108.335 96.732 107.388L96.4587 104.544C96.3677 103.598 96.9003 103.108 97.6492 103.449L124.178 115.55C124.927 115.892 125.607 116.937 125.698 117.883L125.971 120.728C126.062 121.674 125.529 122.163 124.78 121.822Z" fill="#173D7A"/>
<g opacity="0.3">
<path d="M99.4705 109.055C98.7215 108.713 98.0402 107.669 97.9492 106.722L97.6759 103.878C97.6614 103.727 97.6679 103.592 97.6837 103.465L97.6494 103.45C96.9004 103.108 96.3678 103.598 96.4587 104.544L96.7321 107.389C96.8231 108.335 97.5032 109.38 98.2521 109.722L124.781 121.822C125.41 122.109 125.881 121.805 125.963 121.14L99.4705 109.055Z" fill="#06033E"/>
</g>
<path d="M116.144 114.785L100.181 107.503C99.9175 107.383 99.6775 107.015 99.6455 106.682C99.6134 106.349 99.8015 106.177 100.065 106.297L116.028 113.579C116.292 113.698 116.532 114.066 116.564 114.399C116.596 114.733 116.408 114.904 116.144 114.785Z" fill="#FCCC6B"/>
<path d="M126.401 138.678L99.8721 126.577C99.1231 126.235 98.4431 125.191 98.3521 124.245L98.0788 121.401C97.9878 120.454 98.5204 119.964 99.2693 120.305L125.798 132.405C126.547 132.746 127.227 133.792 127.318 134.739L127.591 137.583C127.682 138.529 127.15 139.02 126.401 138.678Z" fill="#173D7A"/>
<g opacity="0.3">
<path d="M101.09 125.91C100.341 125.568 99.6602 124.525 99.5692 123.578L99.2958 120.734C99.2813 120.583 99.2878 120.447 99.3036 120.32L99.2692 120.305C98.5202 119.963 97.9877 120.454 98.0787 121.4L98.3521 124.245C98.443 125.191 99.123 126.234 99.872 126.577L126.401 138.678C127.03 138.965 127.501 138.66 127.583 137.995L101.09 125.91Z" fill="#06033E"/>
</g>
<path d="M117.764 131.64L101.801 124.358C101.537 124.238 101.297 123.871 101.265 123.538C101.233 123.205 101.421 123.032 101.685 123.152L117.648 130.434C117.912 130.553 118.152 130.921 118.184 131.254C118.216 131.588 118.028 131.759 117.764 131.64Z" fill="#FCCC6B"/>
<path d="M128.036 155.689L101.507 143.588C100.758 143.247 100.078 142.202 99.9872 141.256L99.7138 138.412C99.6228 137.465 100.155 136.975 100.904 137.316L127.433 149.418C128.182 149.76 128.862 150.803 128.953 151.75L129.226 154.594C129.317 155.54 128.784 156.03 128.036 155.689Z" fill="#173D7A"/>
<g opacity="0.3">
<path d="M102.725 142.921C101.976 142.579 101.295 141.536 101.204 140.589L100.931 137.745C100.916 137.594 100.923 137.458 100.939 137.331L100.904 137.316C100.155 136.974 99.6228 137.465 99.7137 138.411L99.9871 141.256C100.078 142.202 100.758 143.245 101.507 143.588L128.036 155.689C128.665 155.976 129.136 155.671 129.218 155.006L102.725 142.921Z" fill="#06033E"/>
</g>
<path d="M119.399 148.651L103.436 141.369C103.172 141.249 102.932 140.882 102.9 140.549C102.868 140.216 103.057 140.044 103.32 140.164L119.283 147.446C119.547 147.565 119.787 147.932 119.819 148.265C119.851 148.599 119.663 148.77 119.399 148.651Z" fill="#FF2C9C"/>
<g opacity="0.5">
<path d="M90.2415 81.938L93.0143 83.203L94.0351 93.824L91.2623 92.559L90.2415 81.938Z" fill="#173D7A"/>
</g>
<g opacity="0.5">
<path d="M91.8564 98.7412L94.6294 100.007L95.6501 110.627L92.8773 109.362L91.8564 98.7412Z" fill="#173D7A"/>
</g>
<g opacity="0.5">
<path d="M93.4716 115.546L96.2444 116.811L97.2652 127.432L94.4923 126.166L93.4716 115.546Z" fill="#173D7A"/>
</g>
<g opacity="0.5">
<path d="M95.0865 132.349L97.8594 133.614L98.8802 144.235L96.1074 142.97L95.0865 132.349Z" fill="#173D7A"/>
</g>
<g opacity="0.5">
<path d="M96.7015 149.152L99.4744 150.417L100.495 161.038L97.7224 159.773L96.7015 149.152Z" fill="#173D7A"/>
</g>
<path d="M117.619 98.8465C117.652 99.1856 117.427 99.3473 117.117 99.2054C116.806 99.0635 116.529 98.6736 116.497 98.3346C116.464 97.9955 116.688 97.8351 116.999 97.9769C117.308 98.1189 117.587 98.5074 117.619 98.8465Z" fill="#D4ECFF"/>
<path d="M120 99.9323C120.033 100.271 119.807 100.433 119.498 100.291C119.188 100.149 118.911 99.7593 118.879 99.4203C118.846 99.0812 119.07 98.9208 119.38 99.0627C119.689 99.2047 119.968 99.5933 120 99.9323Z" fill="#FF2C9C"/>
<path d="M122.381 101.02C122.413 101.359 122.188 101.519 121.878 101.377C121.568 101.235 121.292 100.846 121.259 100.506C121.226 100.167 121.45 100.007 121.76 100.149C122.07 100.291 122.348 100.681 122.381 101.02Z" fill="#D4ECFF"/>
<g opacity="0.613353">
<path d="M119.234 115.643C119.266 115.982 119.041 116.142 118.731 116C118.421 115.858 118.143 115.469 118.111 115.129C118.078 114.79 118.303 114.63 118.613 114.772C118.923 114.914 119.201 115.304 119.234 115.643Z" fill="#FF2C9C"/>
</g>
<path d="M121.615 116.729C121.647 117.068 121.422 117.228 121.112 117.086C120.803 116.944 120.525 116.556 120.493 116.217C120.46 115.878 120.685 115.716 120.994 115.858C121.303 116 121.582 116.39 121.615 116.729Z" fill="#D4ECFF"/>
<path d="M123.995 117.815C124.028 118.154 123.802 118.314 123.493 118.172C123.182 118.03 122.906 117.642 122.873 117.303C122.841 116.963 123.064 116.802 123.375 116.944C123.684 117.086 123.962 117.476 123.995 117.815Z" fill="white"/>
<path d="M120.86 132.565C120.893 132.904 120.667 133.064 120.358 132.922C120.047 132.781 119.77 132.392 119.737 132.053C119.705 131.714 119.929 131.552 120.24 131.694C120.549 131.836 120.828 132.226 120.86 132.565Z" fill="white"/>
<path d="M123.241 133.651C123.274 133.99 123.048 134.151 122.739 134.009C122.429 133.867 122.152 133.478 122.119 133.139C122.087 132.799 122.311 132.638 122.62 132.78C122.93 132.922 123.208 133.311 123.241 133.651Z" fill="#FF2C9C"/>
<path d="M125.621 134.735C125.654 135.074 125.428 135.236 125.119 135.094C124.808 134.952 124.532 134.562 124.5 134.223C124.467 133.884 124.69 133.724 125.001 133.866C125.31 134.008 125.589 134.396 125.621 134.735Z" fill="white"/>
<path d="M122.463 149.24C122.496 149.579 122.27 149.741 121.961 149.599C121.65 149.457 121.373 149.067 121.34 148.728C121.308 148.389 121.532 148.228 121.843 148.37C122.152 148.511 122.43 148.901 122.463 149.24Z" fill="white"/>
<path d="M140.857 172.069L133.631 96.8834L133.778 96.7791L163.444 75.6183L170.67 150.803L170.523 150.908L140.857 172.069ZM134.288 97.1833L141.376 170.931L170.013 150.504L162.924 76.7562L134.288 97.1833Z" fill="#173D7A"/>
</g>
</g>
</g>
</g>
<defs>
<linearGradient id="paint0_linear_84_520" x1="174.5" y1="-5.68992e-06" x2="-207" y2="243" gradientUnits="userSpaceOnUse">
<stop stop-color="#743CEC"/>
<stop offset="1" stop-color="#DFDBDC" stop-opacity="0"/>
</linearGradient>
<linearGradient id="paint1_linear_84_520" x1="-39.8413" y1="164.877" x2="137.648" y2="147.818" gradientUnits="userSpaceOnUse">
<stop stop-color="#BCBEFF"/>
<stop offset="0.33" stop-color="#8990EB"/>
<stop offset="1" stop-color="#5761D7"/>
</linearGradient>
<linearGradient id="paint2_linear_84_520" x1="76.025" y1="179.325" x2="20.1336" y2="118.333" gradientUnits="userSpaceOnUse">
<stop stop-color="#42E8E0"/>
<stop offset="0.27" stop-color="#297796"/>
<stop offset="1" stop-color="#0F054C"/>
</linearGradient>
<linearGradient id="paint3_linear_84_520" x1="-630.458" y1="1677.69" x2="-596.075" y2="1602.33" gradientUnits="userSpaceOnUse">
<stop stop-color="#2D0979"/>
<stop offset="0.5" stop-color="#4406B8"/>
<stop offset="1" stop-color="#5B04F7"/>
</linearGradient>
<linearGradient id="paint4_linear_84_520" x1="-688.045" y1="1685.13" x2="-646.267" y2="1693.81" gradientUnits="userSpaceOnUse">
<stop stop-color="#3919BB"/>
<stop offset="0.5" stop-color="#4F10DB"/>
<stop offset="1" stop-color="#6507FA"/>
</linearGradient>
<linearGradient id="paint5_linear_84_520" x1="-688.045" y1="1685.13" x2="-646.267" y2="1693.81" gradientUnits="userSpaceOnUse">
<stop stop-color="#3919BB"/>
<stop offset="0.5" stop-color="#4F10DB"/>
<stop offset="1" stop-color="#6507FA"/>
</linearGradient>
<clipPath id="clip0_84_520">
<path d="M0 22.9192L216.245 2.13528C228.514 0.955994 239.417 9.94664 240.596 22.2165L265.793 284.371C266.972 296.641 257.981 307.543 245.712 308.722L29.467 329.506L0 22.9192Z" fill="white"/>
</clipPath>
<clipPath id="clip1_84_520">
<rect width="228.259" height="179.246" fill="white" transform="translate(-53 52.8379) rotate(-5.49)"/>
</clipPath>
</defs>
</svg>
