<svg width="19" height="18" viewBox="0 0 19 18" fill="none" xmlns="http://www.w3.org/2000/svg">
<path d="M15.0418 8.25C14.6046 8.25 14.2502 8.58579 14.2502 9C14.2502 9.41421 14.6046 9.75 15.0418 9.75C15.4791 9.75 15.8335 9.41421 15.8335 9C15.8335 8.58579 15.4791 8.25 15.0418 8.25Z" stroke="#007EFF" stroke-width="2" stroke-linecap="round" stroke-linejoin="round"/>
<path d="M9.49984 8.25C9.06261 8.25 8.70817 8.58579 8.70817 9C8.70817 9.41421 9.06261 9.75 9.49984 9.75C9.93706 9.75 10.2915 9.41421 10.2915 9C10.2915 8.58579 9.93706 8.25 9.49984 8.25Z" stroke="#007EFF" stroke-width="2" stroke-linecap="round" stroke-linejoin="round"/>
<path d="M3.95833 8.25C3.52111 8.25 3.16666 8.58579 3.16666 9C3.16666 9.41421 3.52111 9.75 3.95833 9.75C4.39556 9.75 4.75 9.41421 4.75 9C4.75 8.58579 4.39556 8.25 3.95833 8.25Z" stroke="#007EFF" stroke-width="2" stroke-linecap="round" stroke-linejoin="round"/>
</svg>
