<svg width="24" height="24" viewBox="0 0 24 24" fill="none" xmlns="http://www.w3.org/2000/svg">
<path d="M2.99951 6H13.9995C13.9995 6.53043 14.2102 7.03914 14.5853 7.41422C14.9604 7.78929 15.4691 8 15.9995 8H17.9995C18.5299 8 19.0387 7.78929 19.4137 7.41422C19.7888 7.03914 19.9995 6.53043 19.9995 6H20.9995C21.2647 6 21.5191 5.89464 21.7066 5.70711C21.8942 5.51957 21.9995 5.26522 21.9995 5C21.9995 4.73478 21.8942 4.48043 21.7066 4.29289C21.5191 4.10536 21.2647 4 20.9995 4H19.9995C19.9995 3.46957 19.7888 2.96086 19.4137 2.58579C19.0387 2.21071 18.5299 2 17.9995 2H15.9995C15.4691 2 14.9604 2.21071 14.5853 2.58579C14.2102 2.96086 13.9995 3.46957 13.9995 4H2.99951C2.7343 4 2.47994 4.10536 2.2924 4.29289C2.10487 4.48043 1.99951 4.73478 1.99951 5C1.99951 5.26522 2.10487 5.51957 2.2924 5.70711C2.47994 5.89464 2.7343 6 2.99951 6ZM15.9995 4H17.9995V5V6H15.9995V4ZM20.9995 11H11.9995C11.9995 10.4696 11.7888 9.96086 11.4137 9.58579C11.0387 9.21072 10.5299 9 9.99951 9H7.99951C7.46908 9 6.96037 9.21072 6.5853 9.58579C6.21023 9.96086 5.99951 10.4696 5.99951 11H2.99951C2.7343 11 2.47994 11.1054 2.2924 11.2929C2.10487 11.4804 1.99951 11.7348 1.99951 12C1.99951 12.2652 2.10487 12.5196 2.2924 12.7071C2.47994 12.8946 2.7343 13 2.99951 13H5.99951C5.99951 13.5304 6.21023 14.0391 6.5853 14.4142C6.96037 14.7893 7.46908 15 7.99951 15H9.99951C10.5299 15 11.0387 14.7893 11.4137 14.4142C11.7888 14.0391 11.9995 13.5304 11.9995 13H20.9995C21.2647 13 21.5191 12.8946 21.7066 12.7071C21.8942 12.5196 21.9995 12.2652 21.9995 12C21.9995 11.7348 21.8942 11.4804 21.7066 11.2929C21.5191 11.1054 21.2647 11 20.9995 11ZM7.99951 13V11H9.99951V12V13H7.99951ZM20.9995 18H17.9995C17.9995 17.4696 17.7888 16.9609 17.4137 16.5858C17.0387 16.2107 16.5299 16 15.9995 16H13.9995C13.4691 16 12.9604 16.2107 12.5853 16.5858C12.2102 16.9609 11.9995 17.4696 11.9995 18H2.99951C2.7343 18 2.47994 18.1054 2.2924 18.2929C2.10487 18.4804 1.99951 18.7348 1.99951 19C1.99951 19.2652 2.10487 19.5196 2.2924 19.7071C2.47994 19.8946 2.7343 20 2.99951 20H11.9995C11.9995 20.5304 12.2102 21.0391 12.5853 21.4142C12.9604 21.7893 13.4691 22 13.9995 22H15.9995C16.5299 22 17.0387 21.7893 17.4137 21.4142C17.7888 21.0391 17.9995 20.5304 17.9995 20H20.9995C21.2647 20 21.5191 19.8946 21.7066 19.7071C21.8942 19.5196 21.9995 19.2652 21.9995 19C21.9995 18.7348 21.8942 18.4804 21.7066 18.2929C21.5191 18.1054 21.2647 18 20.9995 18ZM13.9995 20V18H15.9995V19V20H13.9995Z" fill="#999999"/>
</svg>
