<svg width="18" height="22" viewBox="0 0 18 22" fill="none" xmlns="http://www.w3.org/2000/svg">
<path fill-rule="evenodd" clip-rule="evenodd" d="M10.7707 4.94215C10.7707 3.82469 9.86735 2.92129 8.75123 2.92129C7.63646 2.92129 6.73172 3.82469 6.73172 4.94215V8.30531H10.7707V4.94215ZM14.8771 21.7713H2.62537C1.17536 21.7713 0 20.5664 0 19.0786V11.0006C0 9.51289 1.17536 8.30791 2.62537 8.30791H4.03902V4.94206C4.03902 2.33958 6.14874 0.228516 8.75122 0.228516C11.3537 0.228516 13.4634 2.33958 13.4634 4.94206V8.30791H14.8771C16.3271 8.30791 17.5024 9.51289 17.5024 11.0006V19.0786C17.5024 20.5664 16.3271 21.7713 14.8771 21.7713Z" fill="#060B27"/>
</svg>
