<svg width="16" height="16" viewBox="0 0 16 16" fill="none" xmlns="http://www.w3.org/2000/svg">
<path d="M14.7556 16L9.15556 10.4C8.71111 10.7556 8.2 11.037 7.62222 11.2444C7.04444 11.4519 6.42963 11.5556 5.77778 11.5556C4.16296 11.5556 2.79644 10.9964 1.67822 9.87822C0.559407 8.75941 0 7.39259 0 5.77778C0 4.16296 0.559407 2.79615 1.67822 1.67733C2.79644 0.559111 4.16296 0 5.77778 0C7.39259 0 8.75941 0.559111 9.87822 1.67733C10.9964 2.79615 11.5556 4.16296 11.5556 5.77778C11.5556 6.42963 11.4519 7.04444 11.2444 7.62222C11.037 8.2 10.7556 8.71111 10.4 9.15556L16 14.7556L14.7556 16ZM5.77778 9.77778C6.88889 9.77778 7.83348 9.38904 8.61156 8.61156C9.38904 7.83348 9.77778 6.88889 9.77778 5.77778C9.77778 4.66667 9.38904 3.72207 8.61156 2.944C7.83348 2.16652 6.88889 1.77778 5.77778 1.77778C4.66667 1.77778 3.72207 2.16652 2.944 2.944C2.16652 3.72207 1.77778 4.66667 1.77778 5.77778C1.77778 6.88889 2.16652 7.83348 2.944 8.61156C3.72207 9.38904 4.66667 9.77778 5.77778 9.77778Z" fill="#D2D2D2"/>
</svg>
